<svg width="2732" height="1536" viewBox="0 0 2732 1536" xmlns="http://www.w3.org/2000/svg" role="img" aria-label="">
  <!-- Generic intranet-dashboard placeholder standing in for the real screenshot.
       It carries no names, numbers or branding. The takeover blurs whatever sits
       here at 16px under an 85% tint, so only the broad composition survives —
       flat blocks are indistinguishable from a real UI once blurred.
       The original screenshot is kept out of the repo in _local/. -->
  <defs>
    <linearGradient id="bg_page" x1="0" y1="0" x2="1" y2="1">
      <stop offset="0" stop-color="#FDF0E4"/>
      <stop offset="0.55" stop-color="#FBE3D6"/>
      <stop offset="1" stop-color="#F7D9CF"/>
    </linearGradient>
    <linearGradient id="bg_hero" x1="0" y1="0" x2="1" y2="0">
      <stop offset="0" stop-color="#FCC9A8"/>
      <stop offset="1" stop-color="#F2604A"/>
    </linearGradient>
    <linearGradient id="bg_media" x1="0" y1="0" x2="1" y2="1">
      <stop offset="0" stop-color="#4A4F55"/>
      <stop offset="1" stop-color="#2E3237"/>
    </linearGradient>
  </defs>

  <rect width="2732" height="1536" fill="url(#bg_page)"/>
  <rect x="2320" y="0" width="412" height="250" fill="url(#bg_hero)" opacity="0.85"/>

  <!-- left rail -->
  <rect x="0" y="0" width="158" height="1536" fill="#12212E"/>
  <rect x="46" y="40" width="66" height="66" rx="16" fill="#E04A3F"/>
  <g fill="#7C8B99" opacity="0.65">
    <rect x="52" y="196" width="54" height="46" rx="10"/>
    <rect x="40" y="256" width="78" height="14" rx="7"/>
    <rect x="52" y="360" width="54" height="46" rx="10"/>
    <rect x="34" y="420" width="90" height="14" rx="7"/>
    <rect x="52" y="516" width="54" height="46" rx="10"/>
    <rect x="40" y="576" width="78" height="14" rx="7"/>
    <rect x="52" y="672" width="54" height="46" rx="10"/>
    <rect x="38" y="732" width="82" height="14" rx="7"/>
  </g>
  <circle cx="79" cy="1090" r="30" fill="#E04A3F" opacity="0.9"/>
  <g fill="#7C8B99" opacity="0.6">
    <circle cx="79" cy="1218" r="26"/>
    <circle cx="79" cy="1330" r="26"/>
  </g>
  <circle cx="79" cy="1452" r="32" fill="#9AA7B4" opacity="0.75"/>

  <!-- header -->
  <circle cx="256" cy="80" r="48" fill="#C9B29B"/>
  <rect x="336" y="52" width="560" height="56" rx="14" fill="#243543" opacity="0.82"/>
  <g fill="#FFFFFF" opacity="0.9">
    <circle cx="2490" cy="62" r="34"/>
    <circle cx="2570" cy="62" r="34"/>
    <circle cx="2650" cy="62" r="34"/>
  </g>

  <!-- quick links -->
  <g>
    <rect x="208" y="168" width="280" height="66" rx="33" fill="#FFFFFF" opacity="0.92"/>
    <rect x="510" y="168" width="252" height="66" rx="33" fill="#FFFFFF" opacity="0.92"/>
    <rect x="784" y="168" width="330" height="66" rx="33" fill="#FFFFFF" opacity="0.92"/>
    <rect x="1136" y="168" width="300" height="66" rx="33" fill="#FFFFFF" opacity="0.92"/>
    <rect x="1458" y="168" width="236" height="66" rx="33" fill="#FFFFFF" opacity="0.92"/>
    <rect x="1716" y="168" width="272" height="66" rx="33" fill="#FFFFFF" opacity="0.92"/>
    <rect x="2010" y="168" width="292" height="66" rx="33" fill="#FFFFFF" opacity="0.92"/>
    <rect x="2324" y="168" width="256" height="66" rx="33" fill="#FFFFFF" opacity="0.92"/>
  </g>

  <!-- left card -->
  <rect x="208" y="262" width="1206" height="1274" rx="24" fill="#FFFFFF"/>
  <rect x="252" y="300" width="180" height="34" rx="12" fill="#31404D" opacity="0.8"/>
  <ellipse cx="880" cy="420" rx="360" ry="130" fill="#FBE7D2" opacity="0.85"/>
  <rect x="620" y="378" width="300" height="120" rx="14" fill="#6E7883" opacity="0.75"/>
  <rect x="960" y="400" width="90" height="96" rx="10" fill="#C9CFD6" opacity="0.9"/>
  <circle cx="1108" cy="404" r="34" fill="#DCE3EA"/>
  <g>
    <rect x="252" y="556" width="120" height="56" rx="12" fill="#31404D"/>
    <rect x="388" y="556" width="180" height="56" rx="12" fill="#EEF1F4"/>
    <rect x="584" y="556" width="196" height="56" rx="12" fill="#EEF1F4"/>
    <rect x="796" y="556" width="212" height="56" rx="12" fill="#EEF1F4"/>
  </g>
  <g fill="#E7EBEF">
    <rect x="252" y="668" width="1118" height="4"/>
    <rect x="252" y="828" width="1118" height="4"/>
    <rect x="252" y="988" width="1118" height="4"/>
    <rect x="252" y="1148" width="1118" height="4"/>
    <rect x="252" y="1308" width="1118" height="4"/>
  </g>
  <g fill="#5A6874" opacity="0.72">
    <rect x="330" y="700" width="740" height="26" rx="10"/>
    <rect x="330" y="748" width="380" height="20" rx="9" opacity="0.6"/>
    <rect x="330" y="860" width="560" height="26" rx="10"/>
    <rect x="330" y="908" width="300" height="20" rx="9" opacity="0.6"/>
    <rect x="330" y="1020" width="820" height="26" rx="10"/>
    <rect x="330" y="1068" width="360" height="20" rx="9" opacity="0.6"/>
    <rect x="330" y="1180" width="700" height="26" rx="10"/>
    <rect x="330" y="1228" width="330" height="20" rx="9" opacity="0.6"/>
    <rect x="330" y="1340" width="520" height="26" rx="10"/>
  </g>
  <g fill="#C3CBD3">
    <rect x="266" y="856" width="38" height="38" rx="8"/>
    <rect x="266" y="1176" width="38" height="38" rx="8"/>
  </g>
  <rect x="266" y="1336" width="38" height="38" rx="8" fill="#2FA36B"/>
  <rect x="1218" y="694" width="120" height="40" rx="20" fill="#DDE6F5"/>
  <rect x="1250" y="1178" width="34" height="42" rx="6" fill="#F2B705"/>

  <!-- right column -->
  <rect x="1466" y="262" width="1208" height="700" rx="24" fill="#FFFFFF"/>
  <rect x="1466" y="262" width="1208" height="486" rx="24" fill="url(#bg_media)"/>
  <rect x="1540" y="316" width="520" height="72" rx="10" fill="#12181D"/>
  <rect x="1540" y="404" width="640" height="64" rx="10" fill="#12181D" opacity="0.9"/>
  <ellipse cx="2260" cy="600" rx="190" ry="70" fill="#7E1F28"/>
  <rect x="2090" y="470" width="340" height="140" rx="12" fill="#A32A34" opacity="0.9"/>
  <g fill="#FFFFFF" opacity="0.85">
    <rect x="1516" y="722" width="280" height="8" rx="4"/>
    <rect x="1820" y="722" width="280" height="8" rx="4" opacity="0.5"/>
    <rect x="2124" y="722" width="280" height="8" rx="4" opacity="0.5"/>
  </g>
  <g fill="#5A6874" opacity="0.75">
    <rect x="1516" y="800" width="620" height="28" rx="10"/>
    <rect x="1516" y="856" width="1060" height="22" rx="9" opacity="0.6"/>
    <rect x="1516" y="900" width="900" height="22" rx="9" opacity="0.6"/>
  </g>

  <rect x="1466" y="1008" width="1208" height="528" rx="24" fill="#FFFFFF"/>
  <rect x="1516" y="1052" width="260" height="34" rx="12" fill="#31404D" opacity="0.8"/>
  <rect x="1516" y="1136" width="540" height="400" rx="16" fill="#B98A72"/>
  <rect x="2106" y="1136" width="540" height="400" rx="16" fill="#1F2A33"/>
  <circle cx="1786" cy="1300" r="120" fill="#8E6552" opacity="0.55"/>
  <circle cx="2376" cy="1290" r="110" fill="#2E3D48" opacity="0.8"/>
  <g fill="#FFFFFF" opacity="0.85">
    <rect x="1556" y="1444" width="180" height="22" rx="9"/>
    <rect x="2146" y="1444" width="200" height="22" rx="9"/>
  </g>
</svg>
